<svg xmlns="http://www.w3.org/2000/svg" width="512" height="512" viewBox="0 0 200 200"><defs><linearGradient id="g" x1="0" y1="0" x2="1" y2="1"><stop offset="0" stop-color="#2dd4bf"></stop><stop offset="0.55" stop-color="#22c55e"></stop><stop offset="1" stop-color="#15803d"></stop></linearGradient><linearGradient id="b" x1="0" y1="0" x2="0" y2="1"><stop offset="0" stop-color="#ffffff"></stop><stop offset="1" stop-color="#ecfdf5"></stop></linearGradient></defs><rect x="8" y="8" width="184" height="184" rx="46" fill="url(#g)"></rect><path d="M82 70 q-9 -11 0 -22 q9 -11 0 -22" stroke="#fff" stroke-width="6" stroke-linecap="round" fill="none" opacity="0.75"></path><path d="M100 66 q-9 -11 0 -22 q9 -11 0 -22" stroke="#fff" stroke-width="6" stroke-linecap="round" fill="none"></path><path d="M118 70 q-9 -11 0 -22 q9 -11 0 -22" stroke="#fff" stroke-width="6" stroke-linecap="round" fill="none" opacity="0.75"></path><path d="M50 106 h100 a50 50 0 0 1 -100 0 z" fill="url(#b)"></path><rect x="40" y="97" width="120" height="13" rx="6.5" fill="#fff"></rect><circle cx="84" cy="98" r="7" fill="#ef4444"></circle><circle cx="100" cy="96" r="7" fill="#f59e0b"></circle><circle cx="116" cy="98" r="7" fill="#facc15"></circle><circle cx="100" cy="150" r="6.5" fill="#bbf7d0"></circle></svg>