<svg xmlns="http://www.w3.org/2000/svg" width="512" height="512" viewBox="0 0 200 200"><defs><linearGradient id="g" x1="0" y1="0" x2="1" y2="1"><stop offset="0" stop-color="#2dd4bf"></stop><stop offset="0.55" stop-color="#22c55e"></stop><stop offset="1" stop-color="#15803d"></stop></linearGradient><linearGradient id="b" x1="0" y1="0" x2="0" y2="1"><stop offset="0" stop-color="#ffffff"></stop><stop offset="1" stop-color="#ecfdf5"></stop></linearGradient></defs><rect x="0" y="0" width="200" height="200" fill="url(#g)"></rect><path d="M86 78 q-7 -9 0 -18 q7 -9 0 -18" stroke="#fff" stroke-width="5" stroke-linecap="round" fill="none" opacity="0.75"></path><path d="M100 75 q-7 -9 0 -18 q7 -9 0 -18" stroke="#fff" stroke-width="5" stroke-linecap="round" fill="none"></path><path d="M114 78 q-7 -9 0 -18 q7 -9 0 -18" stroke="#fff" stroke-width="5" stroke-linecap="round" fill="none" opacity="0.75"></path><path d="M62 104 h76 a38 38 0 0 1 -76 0 z" fill="url(#b)"></path><rect x="55" y="97" width="90" height="11" rx="5.5" fill="#fff"></rect><circle cx="88" cy="98" r="5.5" fill="#ef4444"></circle><circle cx="100" cy="96.5" r="5.5" fill="#f59e0b"></circle><circle cx="112" cy="98" r="5.5" fill="#facc15"></circle></svg>